<svg width="24" height="24" viewBox="0 0 24 24" fill="none" xmlns="http://www.w3.org/2000/svg">
<path d="M21.7986 9.7986H14.2022V2.20059C14.2023 0.987074 13.2147 0 12 0C10.7852 0 9.79774 0.987074 9.79774 2.20059V9.7986H2.20222C0.987928 9.7986 0 10.7865 0 12C0 13.213 0.98754 14.2006 2.20222 14.2006H9.79774V21.7986C9.79774 23.0125 10.7848 23.9999 12 23.9999C13.2147 23.9999 14.2022 23.0124 14.2022 21.7986V14.2006H21.7986C23.0125 14.2006 23.9999 13.213 23.9999 12C24 10.7865 23.0125 9.7986 21.7986 9.7986Z" fill="black"/>
</svg>
