<svg width="42" height="42" viewBox="0 0 42 42" fill="none" xmlns="http://www.w3.org/2000/svg">
<path d="M39.8426 16.2832C38.9648 15.184 37.7672 14.577 36.4711 14.577H33.5098C33.2309 6.98086 27.7266 0.902344 21 0.902344C14.2734 0.902344 8.76913 6.98086 8.49023 14.577H5.5289C4.2328 14.577 3.03515 15.184 2.15741 16.2832C1.04999 17.6613 0.648039 19.5809 1.0664 21.4266L4.61835 37.0781C5.15155 39.4406 6.98905 41.0977 9.08085 41.0977H32.9109C35.0027 41.0977 36.8402 39.4488 37.3734 37.0781L40.9336 21.4266C41.3519 19.5809 40.95 17.6613 39.8426 16.2832V16.2832ZM21 4.24922C25.8891 4.24922 29.8922 8.82656 30.1547 14.577H11.8453C12.1078 8.83477 16.1109 4.24922 21 4.24922ZM37.6687 20.6801L34.1168 36.3398C33.9363 37.1438 33.4195 37.7508 32.9191 37.7508H9.08085C8.58046 37.7508 8.06366 37.1438 7.8832 36.3398L4.33124 20.6801C4.14257 19.8516 4.02773 17.9238 5.5289 17.9238H36.4711C38.0871 17.9238 37.8574 19.8516 37.6687 20.6801V20.6801Z" fill="black"/>
<path d="M12.6903 21.2543C11.7633 21.2543 11.0168 22.0008 11.0168 22.9277V33.3867C11.0168 34.3137 11.7633 35.0602 12.6903 35.0602C13.6172 35.0602 14.3637 34.3137 14.3637 33.3867V22.9277C14.3719 22.009 13.6172 21.2543 12.6903 21.2543Z" fill="black"/>
<path d="M20.8031 21.2543C19.8761 21.2543 19.1296 22.0008 19.1296 22.9277V33.3867C19.1296 34.3137 19.8761 35.0602 20.8031 35.0602C21.73 35.0602 22.4765 34.3137 22.4765 33.3867V22.9277C22.4765 22.009 21.7218 21.2543 20.8031 21.2543Z" fill="black"/>
<path d="M28.9078 21.2543C27.9809 21.2543 27.2344 22.0008 27.2344 22.9277V33.3867C27.2344 34.3137 27.9809 35.0602 28.9078 35.0602C29.8348 35.0602 30.5812 34.3137 30.5812 33.3867V22.9277C30.5812 22.009 29.8348 21.2543 28.9078 21.2543Z" fill="black"/>
</svg>
