<svg width="42" height="42" viewBox="0 0 42 42" fill="none" xmlns="http://www.w3.org/2000/svg">
<path d="M14.917 32.216C14.917 32.368 14.7466 32.4896 14.5317 32.4896C14.2872 32.5124 14.1168 32.3908 14.1168 32.216C14.1168 32.0641 14.2872 31.9425 14.5021 31.9425C14.7243 31.9197 14.917 32.0413 14.917 32.216ZM12.6127 31.8741C12.5608 32.0261 12.709 32.2008 12.9313 32.2464C13.1239 32.3224 13.3462 32.2464 13.3907 32.0945C13.4351 31.9425 13.2944 31.7677 13.0721 31.6993C12.8794 31.6461 12.6646 31.7221 12.6127 31.8741ZM15.8876 31.7449C15.6727 31.7981 15.5245 31.9425 15.5468 32.1173C15.569 32.2692 15.7616 32.368 15.9839 32.3148C16.1988 32.2616 16.347 32.1173 16.3247 31.9653C16.3025 31.8209 16.1025 31.7221 15.8876 31.7449ZM20.7629 2.625C10.4862 2.625 2.625 10.6269 2.625 21.1669C2.625 29.5943 7.79667 36.8059 15.1837 39.344C16.1321 39.5188 16.4655 38.9185 16.4655 38.4245C16.4655 37.9534 16.4433 35.3545 16.4433 33.7587C16.4433 33.7587 11.2568 34.8985 10.1676 31.4941C10.1676 31.4941 9.32298 29.2828 8.10786 28.7128C8.10786 28.7128 6.41114 27.5198 8.22641 27.5426C8.22641 27.5426 10.0713 27.6946 11.0864 29.5032C12.709 32.4364 15.4282 31.5929 16.4878 31.0914C16.6582 29.8755 17.1398 29.032 17.6732 28.5305C13.5315 28.0593 9.35262 27.4438 9.35262 20.1334C9.35262 18.0437 9.91573 16.995 11.1012 15.6575C10.9086 15.1636 10.2788 13.127 11.2939 10.4977C12.8424 10.0038 16.4062 12.5495 16.4062 12.5495C17.8881 12.1239 19.4811 11.9035 21.0593 11.9035C22.6374 11.9035 24.2304 12.1239 25.7123 12.5495C25.7123 12.5495 29.2762 9.99616 30.8247 10.4977C31.8398 13.1346 31.21 15.1636 31.0173 15.6575C32.2028 17.0026 32.9289 18.0513 32.9289 20.1334C32.9289 27.4666 28.5649 28.0517 24.4231 28.5305C25.1047 29.1308 25.6827 30.2707 25.6827 32.0565C25.6827 34.6174 25.6604 37.7862 25.6604 38.4093C25.6604 38.9033 26.0013 39.5036 26.9422 39.3288C34.3515 36.8059 39.375 29.5943 39.375 21.1669C39.375 10.6269 31.0396 2.625 20.7629 2.625ZM9.82681 28.8344C9.73049 28.9104 9.75272 29.0852 9.87868 29.2296C9.99723 29.3512 10.1676 29.4044 10.264 29.3056C10.3603 29.2296 10.3381 29.0548 10.2121 28.9104C10.0935 28.7888 9.92313 28.7356 9.82681 28.8344ZM9.02661 28.2189C8.97475 28.3177 9.04884 28.4393 9.19703 28.5153C9.31557 28.5913 9.46376 28.5685 9.51562 28.4621C9.56749 28.3633 9.4934 28.2417 9.34521 28.1657C9.19703 28.1201 9.07848 28.1429 9.02661 28.2189ZM11.4272 30.9242C11.3087 31.023 11.3531 31.251 11.5235 31.3953C11.694 31.5701 11.9088 31.5929 12.0051 31.4713C12.1015 31.3725 12.057 31.1446 11.9088 31.0002C11.7458 30.8254 11.5235 30.8026 11.4272 30.9242ZM10.5826 29.8071C10.464 29.8831 10.464 30.0807 10.5826 30.2555C10.7011 30.4302 10.9012 30.5062 10.9975 30.4302C11.116 30.3315 11.116 30.1339 10.9975 29.9591C10.8937 29.7843 10.7011 29.7083 10.5826 29.8071Z" fill="#4F4F4F"/>
</svg>
