<svg width="56" height="56" viewBox="0 0 56 56" fill="none" xmlns="http://www.w3.org/2000/svg">
<circle cx="28" cy="28" r="28" fill="#DADADA"/>
<path d="M38.544 27.9345C37.5528 28.6928 36.3301 29.1297 35.0294 29.1297C33.7926 29.1297 32.5573 28.7319 31.5147 27.9345C30.5235 28.6928 29.3008 29.1297 28.0001 29.1297C26.7635 29.1297 25.5282 28.732 24.4854 27.9345C23.494 28.6929 22.2713 29.1297 20.9707 29.1297C19.7317 29.1297 18.4966 28.7305 17.4561 27.9345C16.4645 28.6929 15.2419 29.1297 13.9414 29.1297C12.9123 29.1297 11.9444 28.8565 11.1019 28.3784V45.1924C11.1019 45.6384 11.4544 46 11.8893 46H24.305V33.4957C24.305 33.0497 24.6575 32.6881 25.0923 32.6881H30.9079C31.3427 32.6881 31.6952 33.0497 31.6952 33.4957V46H44.1108C44.5457 46 44.8982 45.6384 44.8982 45.1924V28.3784C44.0557 28.8565 43.0878 29.1297 42.0587 29.1297C40.8247 29.1297 39.5888 28.7335 38.544 27.9345ZM13.5908 34.3623C13.5908 33.7236 14.0956 33.206 14.7182 33.206H20.4693C21.092 33.206 21.5968 33.7237 21.5968 34.3623V35.0787H13.5908V34.3623ZM21.5968 41.1302C21.5968 41.7688 21.092 42.2866 20.4693 42.2866H14.7183C14.0956 42.2866 13.5909 41.7688 13.5909 41.1302V37.4713H21.5968V41.1302ZM42.3934 41.1302C42.3934 41.7688 41.8887 42.2866 41.266 42.2866H35.5149C34.8922 42.2866 34.3875 41.7688 34.3875 41.1302V37.4713H42.3934V41.1302ZM42.3934 34.3623V35.0787H34.3875V34.3623C34.3875 33.7236 34.8923 33.206 35.5149 33.206H41.266C41.8887 33.206 42.3934 33.7237 42.3934 34.3623Z" fill="white"/>
<path d="M13.9413 27.1359C15.4762 27.1359 16.8051 26.2354 17.456 24.9219C18.1069 26.2353 19.4358 27.1359 20.9706 27.1359C22.5055 27.1359 23.8344 26.2353 24.4854 24.9219C25.1362 26.2353 26.4652 27.1359 28 27.1359C29.5349 27.1359 30.8639 26.2353 31.5147 24.9219C32.1656 26.2353 33.4946 27.1359 35.0294 27.1359C36.5642 27.1359 37.8932 26.2354 38.544 24.9219C39.195 26.2353 40.5239 27.1359 42.0587 27.1359C44.2354 27.1359 46 25.3259 46 23.0932C46.0001 22.3596 43.0682 11.8362 43.0682 11.8362C42.7862 10.7533 41.8299 10 40.7371 10H15.3381C14.2511 10 13.2983 10.7456 13.0111 11.8209C12.8842 12.2958 10 22.3407 10 23.0932C10 25.3259 11.7646 27.1359 13.9413 27.1359Z" fill="#A8A8A8"/>
</svg>
