<svg width="16" height="16" viewBox="0 0 16 16" fill="none" xmlns="http://www.w3.org/2000/svg">
<g clip-path="url(#clip0_50_178)">
<path d="M15.4592 3.15151L10.6113 7.99992L15.4592 12.8481C16.1803 13.5695 16.1803 14.738 15.4592 15.4594C15.0989 15.8197 14.6265 16 14.1544 16C13.6814 16 13.209 15.82 12.849 15.4594L8.00003 10.6107L3.15143 15.4593C2.79118 15.8196 2.31876 15.9999 1.8462 15.9999C1.37378 15.9999 0.901677 15.8199 0.541103 15.4593C-0.18 14.7383 -0.18 13.5697 0.541103 12.848L5.38888 7.99987L0.540827 3.15151C-0.180276 2.43041 -0.180276 1.2616 0.540827 0.540497C1.26179 -0.180054 2.42992 -0.180054 3.15116 0.540497L7.99999 5.3889L12.8484 0.540497C13.5698 -0.180054 14.7381 -0.180054 15.4589 0.540497C16.1803 1.2616 16.1803 2.43041 15.4592 3.15151Z" fill="#FF0000"/>
</g>
<defs>
<clipPath id="clip0_50_178">
<rect width="16" height="16" fill="white"/>
</clipPath>
</defs>
</svg>
